<?xml version="1.0" encoding="UTF-8"?>
<svg id="Layer_2" data-name="Layer 2" xmlns="http://www.w3.org/2000/svg" viewBox="0 0 267.63 350.88">
  <defs>
    <style>
      .cls-1 {
        fill: #ea1c35;
      }

      .cls-2 {
        fill-rule: evenodd;
      }

      .cls-2, .cls-3 {
        fill: #fff;
      }

      .cls-4 {
        fill: #c7994a;
      }

      .cls-5 {
        fill: #002a4e;
      }
    </style>
  </defs>
  <g id="Layer_1-2" data-name="Layer 1">
    <g>
      <path class="cls-5" d="M1.46,36.45l8.22-4.69,1.69,2.95-5.09,2.91,1.65,2.89,5.09-2.91,1.66,2.91-5.09,2.91,4.09,7.16-3.13,1.79L1.46,36.45Z"/>
      <path class="cls-5" d="M19.38,26.73l3.31-1.62,14.65,13.23-3.39,1.66-3-2.73-6.99,3.42.27,4.07-3.39,1.66-1.46-19.69ZM23.19,30.27l.47,6.78,4.58-2.24-5.05-4.53Z"/>
      <path class="cls-5" d="M34.4,19.81l3.33-1.38,7.02,16.93-3.33,1.38-7.02-16.93Z"/>
      <path class="cls-5" d="M42.49,16.5l9.92-3.56,1.16,3.24-3.27,1.17,5.03,14.01-3.47,1.24-5.02-14.01-3.19,1.14-1.16-3.24Z"/>
      <path class="cls-5" d="M57.71,11.19l3.55-.99,1.85,6.66,6.13-1.7-1.85-6.66,3.53-.98,4.91,17.66-3.53.98-2.15-7.74-6.13,1.7,2.15,7.74-3.55.99-4.91-17.66Z"/>
      <path class="cls-5" d="M98.46,2.42l3.66-.36.68,6.88,6.33-.62-.68-6.88,3.65-.36,1.79,18.24-3.65.36-.79-8-6.33.62.79,8-3.66.36-1.79-18.24Z"/>
      <path class="cls-5" d="M128.82,0c2.7-.04,5.03.87,7,2.72,1.97,1.85,2.97,4.12,3.01,6.82.04,2.67-.89,4.95-2.78,6.83-1.89,1.88-4.2,2.84-6.93,2.88-2.86.04-5.25-.88-7.17-2.75-1.92-1.88-2.9-4.12-2.94-6.74-.02-1.75.39-3.37,1.25-4.85s2.06-2.66,3.59-3.55C125.39.48,127.04.03,128.82,0ZM128.83,3.41c-1.77.02-3.24.64-4.43,1.83-1.18,1.2-1.76,2.7-1.74,4.52.03,2.03.81,3.62,2.34,4.78,1.19.91,2.55,1.35,4.07,1.33,1.72-.02,3.18-.64,4.37-1.86,1.19-1.21,1.78-2.69,1.75-4.45-.02-1.74-.66-3.21-1.89-4.4-1.24-1.19-2.73-1.77-4.48-1.75Z"/>
      <path class="cls-5" d="M145.3.6l3.84.22c2.08.12,3.57.39,4.46.81.9.42,1.59,1.06,2.07,1.92.48.86.69,1.86.63,3.01-.07,1.28-.48,2.32-1.22,3.12-.74.81-1.72,1.34-2.93,1.6-.71.15-1.99.17-3.83.07l-.44,7.75-3.62-.21,1.05-18.29ZM148.51,7.95l1.15.07c.91.05,1.54.03,1.9-.08.36-.1.65-.29.87-.57.22-.28.34-.62.36-1.02.04-.71-.21-1.24-.77-1.6-.4-.26-1.16-.43-2.28-.49l-1.02-.06-.21,3.76Z"/>
      <path class="cls-5" d="M162.62,1.82l10.33,1.28-.42,3.39-6.75-.84-.41,3.29,6.75.84-.41,3.33-6.75-.84-.59,4.78,6.75.84-.42,3.4-10.33-1.28,2.25-18.19Z"/>
      <path class="cls-5" d="M199.17,8.57l3.49,1-4.12,14.42,5.09,1.45-.91,3.2-8.58-2.45,5.03-17.62Z"/>
      <path class="cls-5" d="M221.62,15.38c2.52.96,4.36,2.66,5.5,5.1,1.15,2.44,1.24,4.93.29,7.45-.95,2.5-2.65,4.28-5.1,5.33-2.45,1.05-4.95,1.09-7.5.12-2.67-1.02-4.56-2.75-5.66-5.2-1.09-2.45-1.18-4.9-.25-7.34.62-1.64,1.61-2.99,2.95-4.05s2.9-1.72,4.64-1.97c1.75-.25,3.45-.07,5.12.57ZM220.37,18.56c-1.65-.63-3.25-.6-4.79.07s-2.64,1.86-3.28,3.56c-.72,1.89-.58,3.66.42,5.3.77,1.28,1.87,2.19,3.29,2.73,1.61.61,3.19.57,4.75-.11,1.56-.69,2.65-1.85,3.27-3.49.62-1.63.57-3.23-.14-4.79-.71-1.56-1.88-2.66-3.52-3.28Z"/>
      <path class="cls-5" d="M234.72,21.15l3.35,1.65-1.44,13.8,10.11-9.53,3.35,1.65-14.25,13.41-3.14-1.55,2.03-19.42Z"/>
      <path class="cls-5" d="M255.12,31.59l8.98,5.26-1.73,2.94-5.87-3.44-1.68,2.86,5.87,3.44-1.69,2.89-5.87-3.44-2.44,4.16,5.87,3.44-1.73,2.95-8.98-5.26,9.26-15.81Z"/>
    </g>
    <polygon class="cls-4" points="89.67 10.51 86.87 10.97 86.44 8.33 84.94 8.58 85.37 11.22 82.57 11.68 82.82 13.18 85.62 12.72 86.62 18.81 88.12 18.56 87.12 12.47 89.92 12.01 89.67 10.51"/>
    <polygon class="cls-4" points="188.49 12.13 185.69 11.65 186.15 9.01 184.65 8.75 184.19 11.39 181.4 10.91 181.14 12.41 183.93 12.89 182.88 18.97 184.38 19.23 185.43 13.15 188.23 13.64 188.49 12.13"/>
    <path class="cls-5" d="M133.81,35.26c36.51,0,70.21,8.38,100.16,24.9,14.03,7.74,23.92,15.57,29.39,20.38-5.29,43.69-15.41,84.72-30.11,122.07-12.43,31.58-28.16,60.63-46.74,86.34-21.33,29.51-41.64,47.86-52.7,56.74-11.08-8.9-31.39-27.24-52.71-56.74-18.58-25.71-34.31-54.76-46.74-86.34-14.7-37.34-24.82-78.37-30.11-122.06,5.48-4.82,15.37-12.65,29.39-20.39,29.95-16.53,63.65-24.9,100.16-24.9"/>
    <path class="cls-3" d="M209.97,251.48c-83.17-34.63-147.38-1.22-148.02-.88l-2.41-4.5c.66-.35,67.02-34.88,152.39.67l-1.96,4.71Z"/>
    <g>
      <polygon class="cls-3" points="136.45 35.8 130.97 35.8 130.97 98.23 69.73 98.23 69.73 104.26 130.97 104.26 130.97 232.35 136.45 232.35 136.45 104.26 197.9 104.26 197.9 98.23 136.45 98.23 136.45 35.8"/>
      <polygon class="cls-3" points="147.39 86.82 147.39 35.8 141.71 35.8 141.71 92.41 197.9 92.41 197.9 86.82 147.39 86.82"/>
      <polygon class="cls-3" points="125.71 35.8 120.24 35.8 120.24 86.82 69.73 86.82 69.73 92.41 125.71 92.41 125.71 35.8"/>
      <polygon class="cls-3" points="69.73 115.67 120.24 115.67 120.24 232.35 125.71 232.35 125.71 110.07 69.73 110.07 69.73 115.67"/>
      <polygon class="cls-3" points="141.71 232.35 147.39 232.35 147.39 115.67 197.9 115.67 197.9 110.07 141.71 110.07 141.71 232.35"/>
    </g>
    <path class="cls-1" d="M133.82,350.88l-2.53-2.03c-10.57-8.49-31.56-27.24-53.45-57.53-18.78-25.99-34.67-55.34-47.22-87.23C15.8,166.46,5.59,125.06.26,81.03l-.26-2.11,1.6-1.4c5.95-5.23,16-13.1,30.11-20.89,30.55-16.86,64.91-25.41,102.11-25.41s71.56,8.55,102.11,25.41c14.11,7.79,24.16,15.66,30.11,20.89l1.6,1.4-.26,2.11c-5.33,44.03-15.55,85.43-30.36,123.06-12.55,31.89-28.44,61.24-47.22,87.23-21.89,30.29-42.89,49.04-53.45,57.53l-2.53,2.03ZM8.53,82.19c5.32,42.55,15.27,82.56,29.6,118.94,12.31,31.26,27.87,60.01,46.26,85.46,19.7,27.26,38.59,44.88,49.43,53.9,10.84-9.02,29.73-26.63,49.43-53.9,18.38-25.44,33.95-54.19,46.25-85.46,14.32-36.39,24.28-76.39,29.6-118.94-5.78-4.91-14.8-11.72-27.08-18.49-29.34-16.19-62.39-24.4-98.21-24.4s-68.86,8.21-98.21,24.4c-12.27,6.77-21.3,13.58-27.08,18.5Z"/>
    <path class="cls-4" d="M146.58,293.56l-12.42-7.38-12.91,6.8,3.46-14.01-12.36-10.34h16.04s5.45-12.97,5.45-12.97l5.56,13.07h15.9l-12.51,10.24,3.8,14.59ZM134.24,282.88l7.95,4.72-2.54-9.75,7.57-6.19h-9.59l-3.78-8.88-3.69,8.79h-9.87s7.53,6.29,7.53,6.29l-2.39,9.66,8.81-4.64Z"/>
    <path class="cls-3" d="M133.81,342.7l-1.09-.91c-12.06-10.03-30.47-27.57-49.73-54.21-18.47-25.56-34.1-54.43-46.46-85.83-14.37-36.51-24.36-76.67-29.7-119.35l-.11-.91.7-.59c5.5-4.67,14.7-11.71,27.36-18.69,29.6-16.33,62.92-24.61,99.03-24.61s69.43,8.28,99.03,24.61c12.65,6.98,21.86,14.02,27.36,18.69l.7.59-.11.91c-5.34,42.69-15.33,82.85-29.7,119.36-12.36,31.4-27.99,60.27-46.46,85.83-19.26,26.65-37.67,44.19-49.72,54.21l-1.09.91ZM10.33,82.9c5.33,42.06,15.21,81.63,29.37,117.62,12.25,31.13,27.75,59.76,46.05,85.08,19.33,26.74,38,44.19,48.06,52.68,10.05-8.48,28.72-25.93,48.05-52.68,18.3-25.32,33.8-53.95,46.05-85.08,14.17-35.98,24.05-75.55,29.38-117.62-5.44-4.56-14.21-11.15-26.09-17.71-29.09-16.05-61.86-24.19-97.39-24.19s-68.3,8.14-97.39,24.19c-11.88,6.56-20.65,13.15-26.09,17.71Z"/>
    <path class="cls-2" d="M96.58,223.56c.53-1.01,1.28-2.24,2.18-2.68.84-.41,2.08-.54,3.16-.33.28.05.39.22.33.49-.19.86.19,1.78,1,2.24.51.29,1.08.34,1.6.19.41-.12.65-.22.97-.07.18.1.52-.17.77-.61.25-.44.31-.87.13-.97-.29-.2-.33-.45-.44-.87-.14-.52-.47-.99-.98-1.28-.85-.49-1.9-.3-2.55.39-.24.25-.38.22-.72.14-1.28-.32-2.81-.27-3.54.17.61-1.01,1.02-1.68,2.02-2.4.68-.49,1.47-.88,2.28-1.11.31-.09.39-.04.52.23.4.82,1.32,1.32,2.26,1.14.58-.11,1.06-.44,1.36-.89.24-.36.36-.59.7-.68.2-.04.29-.47.2-.97-.09-.5-.33-.87-.53-.84-.36.03-.54-.13-.9-.39-.44-.32-1.01-.46-1.59-.35-.97.18-1.66,1-1.71,1.95-.01.27-.07.41-.34.47-1.12.26-2.2.78-3.01,1.47.41-.94.61-1.71.74-2.71.06-.42.11-.44.52-.52.99-.2,1.75-1.06,1.78-2.11.02-.62-.22-1.2-.62-1.61-.32-.33-.53-.5-.55-.88,0-.22-.43-.41-.96-.42-.54-.02-.98.15-.99.37-.04.38-.26.54-.6.85-.43.39-.7.95-.72,1.57-.03.95.54,1.79,1.38,2.13.36.15.46.18.4.6-.12.85-.31,1.52-.6,2.2-.36.85-.84,1.66-1.36,2.42-.06.09-.12.18-.19.27-.52.74-1.07,1.44-1.59,2.18-.07.11-.15.21-.22.32.09-.68,0-1.38-.15-2.11-.14-.73-.28-1.29-.25-2.18,0-.33.04-.69.1-1.07.04-.28.08-.31.36-.34.89-.09,1.63-.78,1.76-1.71.08-.56-.08-1.09-.4-1.5-.25-.33-.42-.5-.4-.84.03-.19-.34-.41-.82-.47-.48-.07-.89.04-.92.23-.08.33-.29.45-.62.7-.42.31-.72.78-.79,1.33-.13.93.4,1.79,1.23,2.13.27.11.32.15.27.44-.12.69-.15,1.32-.14,1.83-.37-.61-.86-1.14-1.46-1.56-.27-.19-.25-.21-.18-.52.18-.83-.23-1.7-1.03-2.08-.47-.22-.99-.22-1.44-.05-.36.14-.56.24-.86.13-.17-.08-.45.19-.64.6-.19.41-.21.8-.04.88.27.16.33.38.45.74.16.45.5.85.97,1.06.74.34,1.6.15,2.13-.42.15-.16.25-.15.43-.02,1.05.77,1.69,1.9,1.88,3.37.18,1.39-.12,2.1-.65,3.31-.85,1.93-1.99,5.11-2.23,7.45-2.14-4.36-2.1-9.44-3.86-14.09-4.97-13.13-16.4-23.47-29.49-28.26,9.07,5.38,17.84,25.18,27.93,30.59,1.46.78,1.82,1.35,2.05,2.64.29,1.62.49,3.25.86,4.87-1.01-1.16-2.81-2.52-5.07-3.73-7.07-11.22-23.64-14.01-33.76-14.37,7.72,5.98,20.66,15.9,33.45,14.87.84.41,2.12,1.18,3.29,2.18,1.95,1.65,2.34,2.57,3.15,4.97.59,1.76,1.28,3.4,2.14,4.74l1.86-.81c-2.43-3.28-.32-8.9,1.31-12.02h0ZM81.75,204.04c-1.06-6.65-.52-13.04-.06-18.19,4.8,7.08,8.41,20.29,6.31,27.73-1.66-3.42-3.81-6.62-6.25-9.55h0ZM105.94,222.43c.2-.34.47-.56.61-.48.14.08.09.42-.1.77-.2.34-.47.56-.61.48-.14-.08-.09-.42.1-.77h0ZM107.1,215.83c-.07-.39,0-.74.16-.77.16-.03.35.27.42.66.07.39,0,.74-.16.77-.16.03-.35-.27-.42-.66h0ZM90.4,215.89c.15-.32.16-.63.03-.69-.13-.06-.36.15-.5.47-.15.32-.16.63-.03.69.13.06.36-.15.5-.47h0ZM96.28,213.14c-.38-.05-.67-.22-.65-.37.02-.15.34-.23.72-.18.38.05.67.22.65.37-.02.15-.34.23-.72.18h0ZM100.64,210.55c-.42-.01-.77-.16-.76-.33,0-.17.35-.3.78-.29.42.01.77.16.76.33,0,.17-.35.3-.78.29h0Z"/>
    <path class="cls-2" d="M171.07,223.56c1.63,3.12,3.74,8.74,1.31,12.02l1.86.81c.85-1.34,1.55-2.98,2.14-4.74.81-2.4,1.2-3.31,3.15-4.97,1.17-1,2.44-1.77,3.29-2.18,12.79,1.03,25.73-8.9,33.45-14.87-10.12.35-26.69,3.15-33.76,14.37-2.26,1.2-4.06,2.56-5.07,3.73.37-1.63.57-3.26.86-4.87.23-1.29.59-1.85,2.05-2.64,10.08-5.41,18.85-25.2,27.93-30.59-13.09,4.78-24.53,15.13-29.49,28.26-1.76,4.64-1.71,9.73-3.86,14.09-.23-2.33-1.38-5.51-2.23-7.45-.53-1.21-.83-1.92-.65-3.31.19-1.47.83-2.6,1.88-3.37.18-.13.28-.14.43.02.53.57,1.39.76,2.13.42.47-.22.81-.61.97-1.06.13-.36.18-.58.45-.74.17-.08.15-.47-.04-.88-.19-.41-.47-.68-.64-.6-.3.11-.5,0-.86-.13-.45-.17-.97-.17-1.44.05-.8.37-1.22,1.25-1.03,2.08.07.31.09.33-.18.52-.61.42-1.09.96-1.46,1.56,0-.51-.02-1.14-.14-1.83-.05-.3,0-.33.27-.44.83-.34,1.36-1.2,1.23-2.13-.08-.56-.38-1.03-.79-1.33-.33-.24-.54-.37-.62-.7-.03-.19-.44-.3-.92-.23-.48.07-.85.28-.82.47.02.34-.15.51-.4.84-.32.41-.48.94-.4,1.5.13.93.87,1.61,1.76,1.71.28.03.32.06.36.34.06.38.09.74.1,1.07.03.89-.11,1.45-.25,2.18-.14.73-.24,1.43-.15,2.11-.07-.11-.15-.22-.22-.32-.52-.74-1.07-1.45-1.59-2.18-.06-.09-.13-.18-.19-.27-.52-.76-1-1.57-1.36-2.42-.29-.68-.48-1.35-.6-2.2-.06-.42.04-.46.4-.6.84-.34,1.41-1.17,1.38-2.13-.02-.62-.29-1.18-.72-1.57-.34-.31-.56-.47-.6-.85,0-.22-.45-.38-.99-.37-.54.02-.97.21-.96.42-.02.38-.23.55-.55.88-.4.42-.64.99-.62,1.61.03,1.05.79,1.91,1.78,2.11.41.08.46.1.52.52.13.99.33,1.77.74,2.71-.81-.69-1.89-1.21-3.01-1.47-.27-.06-.33-.2-.34-.47-.05-.95-.74-1.77-1.71-1.95-.58-.11-1.14.04-1.59.35-.35.25-.54.42-.9.39-.2-.04-.44.34-.53.84-.09.5,0,.93.2.97.34.1.46.32.7.68.3.45.78.79,1.36.89.95.17,1.86-.32,2.26-1.14.13-.27.21-.32.52-.23.81.23,1.6.62,2.28,1.11,1.01.72,1.42,1.39,2.02,2.4-.73-.44-2.26-.49-3.54-.17-.34.09-.48.12-.72-.14-.64-.69-1.69-.87-2.55-.39-.51.29-.85.76-.98,1.28-.11.42-.14.66-.44.87-.18.1-.12.54.13.97.25.44.59.71.77.61.32-.15.55-.05.97.07.52.15,1.1.1,1.6-.19.81-.46,1.19-1.38,1-2.24-.06-.28.05-.44.33-.49,1.08-.21,2.33-.08,3.16.33.9.44,1.65,1.67,2.18,2.68h0ZM185.9,204.04c-2.44,2.92-4.59,6.12-6.25,9.55-2.1-7.45,1.51-20.65,6.31-27.73.46,5.15,1,11.54-.06,18.19h0ZM161.71,222.43c.2.34.24.69.1.77-.14.08-.41-.14-.61-.48-.2-.34-.24-.69-.1-.77.14-.08.41.14.61.48h0ZM160.55,215.83c-.07.39-.26.69-.42.66-.16-.03-.23-.37-.16-.77.07-.39.26-.69.42-.66.16.03.23.37.16.77h0ZM177.25,215.89c.15.32.37.53.5.47.13-.06.12-.37-.03-.69-.15-.32-.37-.53-.5-.47-.13.06-.12.37.03.69h0ZM171.37,213.14c-.38.05-.7-.03-.72-.18-.02-.15.27-.32.65-.37.38-.05.7.03.72.18.02.15-.27.32-.65.37h0ZM167.01,210.55c-.42.01-.77-.12-.78-.29,0-.17.34-.32.76-.33.42-.01.77.12.78.29,0,.17-.34.32-.76.33h0Z"/>
  </g>
</svg>