<?xml version="1.0" encoding="UTF-8"?>
<svg id="Layer_2" data-name="Layer 2" xmlns="http://www.w3.org/2000/svg" viewBox="0 0 320.25 286.46">
  <defs>
    <style>
      .cls-1 {
        fill: #fff;
        fill-rule: evenodd;
      }
    </style>
  </defs>
  <g id="Layer_1-2" data-name="Layer 1">
    <path class="cls-1" d="M64.09,213.76c9.24,17.67,21.19,49.53,7.45,68.12l10.55,4.59c4.83-7.58,8.78-16.9,12.11-26.85,4.56-13.61,6.79-18.77,17.83-28.15,6.65-5.65,13.85-10,18.63-12.33,72.51,5.82,145.81-50.43,189.59-84.29-57.36,2.01-151.27,17.85-191.35,81.43-12.82,6.81-22.99,14.54-28.73,21.12,2.1-9.22,3.21-18.45,4.86-27.62,1.31-7.32,3.32-10.51,11.61-14.95,57.16-30.64,106.87-142.85,158.29-173.35-74.21,27.11-139.01,85.75-167.17,160.15-9.96,26.32-9.72,55.13-21.87,79.84-1.31-13.23-7.79-31.26-12.62-42.21-3.01-6.83-4.69-10.89-3.69-18.76,1.05-8.33,4.68-14.74,10.64-19.09,1-.73,1.58-.79,2.42.12,3.01,3.22,7.85,4.3,12.07,2.36,2.68-1.24,4.59-3.46,5.5-6.03.73-2.05,1.01-3.29,2.57-4.18.94-.43.83-2.66-.24-4.97-1.07-2.31-2.69-3.83-3.63-3.4-1.69.61-2.82.02-4.85-.76-2.55-.98-5.48-.97-8.16.27-4.56,2.1-6.89,7.06-5.86,11.77.38,1.74.5,1.88-1.01,2.93-3.43,2.4-6.21,5.41-8.28,8.85.05-2.88-.11-6.45-.78-10.37-.29-1.68-.02-1.9,1.5-2.51,4.69-1.9,7.68-6.8,6.95-12.05-.44-3.15-2.13-5.81-4.51-7.55-1.89-1.39-3.08-2.07-3.51-3.95-.15-1.1-2.48-1.68-5.19-1.31-2.72.38-4.79,1.58-4.64,2.68.1,1.93-.86,2.91-2.29,4.76-1.81,2.33-2.71,5.35-2.27,8.5.73,5.25,4.96,9.15,10,9.69,1.58.17,1.81.33,2.06,1.93.33,2.16.5,4.21.55,6.08.15,5.03-.62,8.21-1.43,12.37-.8,4.14-1.35,8.13-.85,11.95-.42-.61-.84-1.22-1.26-1.83-2.93-4.18-6.05-8.2-8.99-12.37-.36-.51-.71-1.02-1.07-1.53-2.96-4.32-5.69-8.9-7.73-13.7-1.64-3.85-2.69-7.65-3.38-12.45-.34-2.4.21-2.6,2.25-3.42,4.75-1.93,8-6.64,7.84-12.05-.11-3.54-1.66-6.69-4.07-8.91-1.92-1.77-3.16-2.67-3.41-4.8-.04-1.24-2.54-2.17-5.59-2.08-3.05.09-5.5,1.17-5.46,2.4-.12,2.15-1.3,3.12-3.12,5-2.28,2.36-3.65,5.6-3.54,9.14.18,5.97,4.47,10.85,10.09,11.98,2.32.47,2.61.56,2.92,2.96.73,5.62,1.88,10.01,4.22,15.33-4.6-3.93-10.69-6.84-17.06-8.32-1.54-.36-1.85-1.12-1.93-2.66-.28-5.36-4.2-10.02-9.7-11.03-3.28-.6-6.49.2-9.01,1.99-2.01,1.42-3.08,2.38-5.09,2.19-1.15-.21-2.5,1.91-3.02,4.74-.52,2.83-.01,5.29,1.13,5.5,1.95.54,2.61,1.81,3.98,3.86,1.72,2.57,4.43,4.46,7.71,5.07,5.36.99,10.54-1.8,12.82-6.48.74-1.53,1.22-1.82,2.96-1.32,4.61,1.32,9.06,3.5,12.93,6.28,5.71,4.11,8.02,7.87,11.46,13.61-4.13-2.47-12.81-2.79-20.06-.95-1.91.48-2.75.66-4.08-.78-3.63-3.9-9.59-4.95-14.43-2.19-2.87,1.64-4.79,4.3-5.56,7.26-.61,2.36-.82,3.77-2.47,4.91-1,.57-.67,3.04.74,5.52,1.41,2.48,3.37,4.02,4.37,3.45,1.83-.84,3.14-.29,5.48.38,2.94.85,6.21.55,9.08-1.08,4.58-2.61,6.74-7.83,5.67-12.72-.34-1.57.3-2.5,1.87-2.8,6.12-1.18,13.19-.45,17.93,1.89,5.08,2.51,9.35,9.48,12.34,15.19h0ZM148.15,103.09c-13.83,16.57-26.04,34.71-35.44,54.1-11.92-42.21,8.57-117.04,35.76-157.19,2.6,29.17,5.68,65.41-.32,103.09h0ZM11.04,207.34c1.11,1.95,1.37,3.9.58,4.35-.79.45-2.34-.77-3.45-2.72-1.11-1.95-1.37-3.9-.58-4.35.79-.45,2.34.77,3.45,2.72h0ZM4.43,169.92c-.41,2.23-1.48,3.9-2.38,3.74-.9-.17-1.3-2.11-.89-4.34.41-2.23,1.48-3.9,2.38-3.74.9.17,1.3,2.11.89,4.34h0ZM99.08,170.29c.84,1.82,2.12,3.02,2.86,2.68.74-.34.65-2.09-.19-3.92-.84-1.82-2.12-3.02-2.86-2.68-.74.34-.65,2.09.19,3.92h0ZM65.78,154.67c-2.14.3-3.98-.16-4.1-1.03-.12-.87,1.52-1.81,3.66-2.11,2.14-.3,3.98.16,4.1,1.03.12.87-1.52,1.81-3.66,2.11h0ZM41.06,140c-2.41.07-4.38-.66-4.41-1.64-.03-.98,1.9-1.82,4.31-1.89,2.41-.07,4.38.66,4.41,1.64.03.98-1.9,1.82-4.31,1.89h0Z"/>
  </g>
</svg>