<?xml version="1.0" encoding="UTF-8"?>
<svg id="Layer_2" data-name="Layer 2" xmlns="http://www.w3.org/2000/svg" viewBox="0 0 267.63 350.88">
  <defs>
    <style>
      .cls-1 {
        fill: #fff;
      }
    </style>
  </defs>
  <g id="Layer_1-2" data-name="Layer 1">
    <g>
      <polygon class="cls-1" points="13.67 50.57 9.58 43.41 14.67 40.5 13.01 37.59 7.92 40.5 6.27 37.61 11.36 34.7 9.67 31.75 1.46 36.45 10.55 52.36 13.67 50.57"/>
      <path class="cls-1" d="M24.22,44.76l-.27-4.07,6.99-3.42,3,2.73,3.39-1.66-14.65-13.23-3.31,1.62,1.46,19.69,3.39-1.66ZM28.24,34.8l-4.58,2.24-.47-6.78,5.05,4.53Z"/>
      <rect class="cls-1" x="37.77" y="18.42" width="3.6" height="18.32" transform="translate(-7.55 17.26) rotate(-22.52)"/>
      <polygon class="cls-1" points="46.83 18.59 51.86 32.6 55.32 31.36 50.3 17.35 53.57 16.18 52.41 12.94 42.49 16.5 43.65 19.73 46.83 18.59"/>
      <polygon class="cls-1" points="66.16 27.86 64.01 20.12 70.15 18.41 72.3 26.15 75.83 25.17 70.92 7.52 67.39 8.5 69.24 15.16 63.11 16.86 61.26 10.2 57.71 11.19 62.62 28.84 66.16 27.86"/>
      <polygon class="cls-1" points="103.92 20.29 103.13 12.3 109.47 11.67 110.25 19.67 113.9 19.31 112.11 1.07 108.46 1.43 109.14 8.31 102.8 8.94 102.13 2.05 98.46 2.42 100.25 20.65 103.92 20.29"/>
      <path class="cls-1" d="M129.12,19.25c2.73-.04,5.04-1,6.93-2.88,1.89-1.88,2.81-4.15,2.78-6.83-.04-2.7-1.04-4.97-3.01-6.82C133.86.87,131.52-.04,128.82,0c-1.78.02-3.44.48-4.97,1.36-1.53.88-2.73,2.06-3.59,3.55-.86,1.48-1.28,3.1-1.25,4.85.04,2.62,1.02,4.86,2.94,6.74,1.92,1.87,4.31,2.79,7.17,2.75ZM124.41,5.25c1.19-1.2,2.66-1.81,4.43-1.83,1.75-.02,3.24.56,4.48,1.75,1.24,1.19,1.87,2.66,1.89,4.4.02,1.75-.56,3.23-1.75,4.45-1.19,1.21-2.65,1.83-4.37,1.86-1.52.02-2.88-.42-4.07-1.33-1.53-1.16-2.31-2.75-2.34-4.78-.02-1.82.55-3.33,1.74-4.52Z"/>
      <path class="cls-1" d="M148.32,11.35c1.85.11,3.12.08,3.83-.07,1.21-.26,2.19-.8,2.93-1.6.74-.81,1.15-1.85,1.22-3.12.06-1.15-.14-2.16-.63-3.01-.48-.85-1.17-1.49-2.07-1.92-.9-.42-2.39-.69-4.46-.81l-3.84-.22-1.05,18.29,3.62.21.44-7.75ZM148.73,4.2l1.02.06c1.12.06,1.88.23,2.28.49.55.36.81.89.77,1.6-.02.41-.14.75-.36,1.02-.22.27-.51.47-.87.57-.36.1-.99.13-1.9.08l-1.15-.07.21-3.76Z"/>
      <polygon class="cls-1" points="171.13 17.89 164.37 17.05 164.96 12.27 171.72 13.1 172.13 9.78 165.38 8.94 165.78 5.65 172.54 6.49 172.96 3.1 162.62 1.82 160.37 20.01 170.71 21.29 171.13 17.89"/>
      <polygon class="cls-1" points="203.63 25.44 198.55 23.99 202.67 9.56 199.17 8.57 194.14 26.19 202.72 28.64 203.63 25.44"/>
      <path class="cls-1" d="M214.8,33.38c2.55.97,5.06.93,7.5-.12,2.45-1.05,4.15-2.83,5.1-5.33.96-2.52.86-5.01-.29-7.45-1.15-2.44-2.98-4.15-5.5-5.1-1.67-.63-3.37-.82-5.12-.57-1.75.26-3.3.91-4.64,1.97-1.35,1.06-2.33,2.41-2.95,4.05-.93,2.44-.85,4.89.25,7.34,1.09,2.45,2.98,4.18,5.66,5.2ZM212.3,22.19c.65-1.7,1.74-2.89,3.28-3.56s3.14-.7,4.79-.07c1.63.62,2.81,1.71,3.52,3.28.71,1.56.76,3.16.14,4.79-.62,1.64-1.71,2.8-3.27,3.49-1.56.69-3.14.72-4.75.11-1.42-.54-2.52-1.45-3.29-2.73-1-1.64-1.13-3.41-.42-5.3Z"/>
      <polygon class="cls-1" points="250.09 28.71 246.74 27.07 236.63 36.6 238.07 22.8 234.72 21.15 232.69 40.58 235.83 42.12 250.09 28.71"/>
      <polygon class="cls-1" points="254.83 52.66 256.57 49.71 250.7 46.27 253.13 42.11 259 45.55 260.7 42.66 254.83 39.22 256.5 36.36 262.37 39.8 264.1 36.85 255.12 31.59 245.85 47.4 254.83 52.66"/>
      <polygon class="cls-1" points="82.82 13.18 85.62 12.72 86.62 18.81 88.12 18.56 87.12 12.47 89.92 12.01 89.67 10.51 86.87 10.97 86.44 8.33 84.94 8.58 85.37 11.22 82.57 11.68 82.82 13.18"/>
      <polygon class="cls-1" points="182.88 18.97 184.38 19.23 185.43 13.15 188.23 13.64 188.49 12.13 185.69 11.65 186.15 9.01 184.65 8.76 184.19 11.39 181.4 10.91 181.14 12.41 183.93 12.89 182.88 18.97"/>
      <path class="cls-1" d="M266.03,77.52c-5.95-5.23-16-13.1-30.11-20.89-30.55-16.86-64.91-25.41-102.11-25.41s-71.56,8.55-102.11,25.41c-14.11,7.79-24.16,15.66-30.11,20.89l-1.6,1.4.26,2.11c5.33,44.02,15.55,85.43,30.36,123.06,12.55,31.89,28.44,61.24,47.22,87.23,21.89,30.28,42.88,49.04,53.45,57.53l2.53,2.03,2.53-2.03c10.56-8.48,31.55-27.24,53.45-57.53,18.78-25.99,34.67-55.33,47.22-87.23,14.81-37.63,25.03-79.03,30.36-123.06l.26-2.11-1.6-1.4ZM207.33,244.92c-11.18-4.36-22.01-7.54-32.39-9.76.55-1.07,1.02-2.25,1.44-3.5.81-2.4,1.2-3.31,3.15-4.97,1.17-1,2.44-1.77,3.29-2.18,12.79,1.03,25.73-8.9,33.45-14.87-10.12.35-26.69,3.15-33.76,14.37-2.26,1.2-4.06,2.56-5.07,3.73.37-1.63.57-3.26.86-4.87.23-1.29.59-1.85,2.05-2.64,10.08-5.41,18.85-25.2,27.93-30.59-13.09,4.78-24.53,15.13-29.49,28.26-1.76,4.64-1.71,9.73-3.86,14.09-.23-2.33-1.38-5.51-2.23-7.45-.53-1.21-.83-1.92-.65-3.31.19-1.47.83-2.6,1.88-3.37.18-.13.28-.14.43.02.53.57,1.39.76,2.13.42.47-.22.81-.61.97-1.06.13-.36.18-.58.45-.74.17-.08.15-.47-.04-.88-.19-.41-.47-.68-.64-.6-.3.11-.5,0-.86-.13-.45-.17-.97-.17-1.44.05-.8.37-1.22,1.25-1.03,2.08.07.31.09.33-.18.52-.61.42-1.09.96-1.46,1.56,0-.51-.02-1.14-.14-1.83-.05-.3,0-.33.27-.44.83-.34,1.36-1.2,1.23-2.13-.08-.56-.38-1.03-.79-1.33-.33-.24-.54-.37-.62-.7-.03-.19-.44-.3-.92-.23-.48.07-.85.28-.82.47.02.34-.15.51-.4.84-.32.41-.48.94-.4,1.5.13.93.87,1.61,1.76,1.71.28.03.32.06.36.34.06.38.09.74.1,1.07.03.89-.11,1.45-.25,2.18-.14.73-.24,1.43-.15,2.11-.07-.11-.15-.22-.22-.32-.52-.74-1.07-1.45-1.59-2.18-.06-.09-.13-.18-.19-.27-.52-.76-1-1.57-1.36-2.42-.29-.68-.48-1.35-.6-2.2-.06-.42.04-.46.4-.6.84-.34,1.41-1.17,1.38-2.13-.02-.62-.29-1.18-.72-1.57-.34-.31-.56-.47-.6-.85,0-.22-.45-.38-.99-.37s-.97.21-.96.42c-.02.38-.23.55-.55.88-.4.42-.64.99-.62,1.61.03,1.05.79,1.91,1.78,2.11.41.08.46.1.52.52.13.99.33,1.77.74,2.71-.81-.69-1.89-1.21-3.01-1.47-.27-.06-.33-.2-.34-.47-.05-.95-.74-1.77-1.71-1.95-.58-.11-1.14.04-1.59.35-.35.25-.54.42-.9.39-.2-.04-.44.34-.53.84-.09.5,0,.93.2.97.34.09.46.32.7.68.3.45.78.79,1.36.89.95.17,1.86-.32,2.26-1.14.13-.27.21-.32.52-.23.81.23,1.6.62,2.28,1.11,1.01.72,1.42,1.39,2.02,2.4-.73-.44-2.26-.49-3.54-.17-.34.09-.48.12-.72-.14-.64-.69-1.69-.87-2.55-.39-.51.29-.85.76-.98,1.28-.11.42-.14.66-.44.87-.18.1-.12.54.13.97s.59.71.77.61c.32-.15.55-.05.97.07.52.15,1.1.1,1.6-.19.81-.46,1.19-1.38,1-2.24-.06-.28.05-.44.33-.49,1.08-.21,2.33-.08,3.16.33.9.44,1.65,1.67,2.18,2.68,1.5,2.86,3.39,7.83,1.81,11.16-8.86-1.8-17.38-2.92-25.5-3.5v-115.56h50.51v-5.6h-56.2v120.83c-1.78-.08-3.53-.12-5.26-.15v-126.49h61.46v-6.03h-61.46v-57.19c1.76.02,3.52.05,5.26.11v51.27h56.2v-5.6h-50.51v-45.41c30.33,1.82,58.47,9.8,83.81,23.78,11.88,6.56,20.65,13.15,26.09,17.71-5.33,42.07-15.21,81.63-29.38,117.62-6.08,15.45-12.96,30.28-20.59,44.4ZM120.24,41.41v45.41h-50.51v5.6h55.99v-51.26c1.75-.06,3.5-.1,5.26-.12v57.19h-61.25v6.03h61.25v126.48c-1.78.02-3.53.07-5.26.14v-120.81h-55.99v5.6h50.51v115.5c-9.44.64-17.99,1.93-25.51,3.48-1.51-3.33.36-8.24,1.85-11.08.53-1.01,1.28-2.24,2.18-2.68.84-.41,2.08-.54,3.16-.33.28.05.39.22.33.49-.19.86.19,1.78,1,2.24.51.29,1.08.34,1.6.19.41-.12.65-.22.97-.07.18.1.52-.17.77-.61.25-.44.31-.87.13-.97-.29-.2-.33-.45-.44-.87-.14-.52-.47-.99-.98-1.28-.85-.49-1.9-.3-2.55.39-.24.25-.38.22-.72.14-1.28-.32-2.81-.27-3.54.17.61-1.01,1.02-1.68,2.02-2.4.68-.49,1.47-.88,2.28-1.11.31-.09.39-.04.52.23.4.82,1.32,1.32,2.26,1.14.58-.11,1.06-.44,1.36-.89.24-.36.36-.59.7-.68.2-.04.29-.47.2-.97s-.33-.87-.53-.84c-.36.03-.54-.13-.9-.39-.44-.32-1.01-.46-1.59-.35-.97.18-1.66,1-1.71,1.95-.01.27-.07.41-.34.47-1.12.26-2.2.78-3.01,1.47.41-.94.61-1.71.74-2.71.06-.42.11-.44.52-.52.99-.2,1.75-1.06,1.78-2.11.02-.62-.22-1.2-.62-1.61-.32-.33-.53-.5-.55-.88,0-.22-.43-.41-.96-.42-.54-.02-.98.15-.99.37-.04.38-.26.54-.6.85-.43.39-.7.95-.72,1.57-.03.95.54,1.79,1.38,2.13.36.15.46.18.4.6-.12.85-.31,1.52-.6,2.2-.36.85-.84,1.66-1.36,2.42-.06.09-.12.18-.19.27-.52.74-1.07,1.44-1.59,2.18-.07.11-.15.21-.22.32.09-.68,0-1.38-.15-2.11-.14-.73-.28-1.29-.25-2.18,0-.33.04-.69.1-1.07.04-.28.08-.31.36-.34.89-.09,1.63-.78,1.76-1.71.08-.56-.08-1.09-.4-1.5-.25-.33-.42-.5-.4-.84.03-.19-.34-.41-.82-.47-.48-.07-.89.04-.92.23-.08.33-.29.45-.62.7-.42.31-.72.78-.8,1.33-.13.93.4,1.79,1.23,2.13.27.11.32.15.27.44-.12.69-.15,1.32-.14,1.83-.37-.61-.86-1.14-1.46-1.56-.27-.19-.25-.21-.18-.52.18-.83-.23-1.7-1.03-2.08-.47-.22-.99-.22-1.44-.05-.36.14-.56.24-.86.13-.17-.08-.45.19-.64.6-.19.41-.21.8-.04.88.27.16.33.38.45.74.16.45.5.85.97,1.06.74.34,1.6.15,2.13-.42.15-.16.25-.15.43-.02,1.05.77,1.69,1.9,1.88,3.37.18,1.39-.12,2.1-.65,3.31-.85,1.93-1.99,5.11-2.23,7.45-2.14-4.36-2.1-9.44-3.86-14.09-4.97-13.13-16.4-23.47-29.49-28.26,9.07,5.38,17.84,25.18,27.93,30.59,1.46.78,1.82,1.35,2.05,2.64.29,1.62.49,3.25.86,4.87-1.01-1.16-2.81-2.52-5.07-3.73-7.07-11.22-23.64-14.01-33.76-14.37,7.72,5.98,20.66,15.9,33.45,14.87.84.41,2.11,1.18,3.29,2.18,1.95,1.65,2.34,2.57,3.15,4.97.41,1.22.88,2.38,1.41,3.43-17.21,3.76-28.59,8.83-32.02,10.48-7.76-14.31-14.76-29.36-20.94-45.05-14.16-35.98-24.05-75.55-29.38-117.62,5.44-4.56,14.21-11.16,26.09-17.71,25.35-13.99,53.49-21.96,83.81-23.78ZM105.94,222.43c.2-.34.47-.56.61-.48.14.08.09.42-.1.77-.2.34-.47.56-.61.48-.14-.08-.09-.42.1-.77ZM107.26,215.06c.16-.03.35.27.42.66s0,.74-.16.77-.35-.27-.42-.66,0-.74.16-.77ZM99.88,210.22c0-.17.35-.3.78-.29.42.01.77.16.76.33,0,.17-.35.3-.78.29-.42-.01-.77-.16-.76-.33ZM95.63,212.77c.02-.15.34-.23.72-.18.38.05.67.22.65.37-.02.15-.34.23-.72.18-.38-.05-.67-.22-.65-.37ZM90.4,215.89c-.15.32-.37.53-.5.47-.13-.06-.12-.37.03-.69.15-.32.37-.53.5-.47s.12.37-.03.69ZM204.85,249.43c-7.07,12.67-14.73,24.76-22.98,36.16-19.33,26.75-38.01,44.2-48.05,52.68-10.05-8.48-28.73-25.94-48.06-52.68-8.11-11.23-15.67-23.11-22.65-35.56,8.81-4.21,67.11-29.47,141.74-.6ZM171.37,213.14c-.38.05-.7-.03-.72-.18-.02-.15.27-.32.65-.37.38-.05.7.03.72.18.02.15-.27.32-.65.37ZM177.21,215.2c.13-.06.36.15.5.47.15.32.16.63.03.69-.13.06-.36-.15-.5-.47s-.16-.63-.03-.69ZM167.01,210.55c-.42.01-.77-.12-.78-.29,0-.17.34-.32.76-.33.42-.01.77.12.78.29,0,.17-.34.32-.76.33ZM160.55,215.83c-.07.39-.26.69-.42.66s-.23-.37-.16-.77.26-.69.42-.66.23.37.16.77ZM161.82,223.2c-.14.08-.41-.14-.61-.48-.2-.34-.24-.69-.1-.77.14-.08.41.14.61.48.2.34.24.69.1.77Z"/>
      <path class="cls-1" d="M121.24,292.98l12.92-6.8,12.42,7.38-3.8-14.59,12.51-10.24h-15.9l-5.56-13.07-5.45,12.98h-16.04s12.36,10.33,12.36,10.33l-3.46,14.01ZM120.29,271.56h9.87s3.69-8.79,3.69-8.79l3.78,8.88h9.59l-7.57,6.19,2.54,9.75-7.95-4.72-8.81,4.64,2.39-9.66-7.53-6.29Z"/>
      <path class="cls-1" d="M88,213.58c2.1-7.45-1.51-20.65-6.31-27.73-.46,5.15-1,11.54.06,18.19,2.44,2.92,4.59,6.12,6.25,9.55Z"/>
      <path class="cls-1" d="M179.65,213.58c1.66-3.42,3.81-6.62,6.25-9.55,1.06-6.65.52-13.04.06-18.19-4.8,7.08-8.41,20.29-6.31,27.73Z"/>
    </g>
  </g>
</svg>