<?xml version="1.0" encoding="UTF-8"?>
<svg id="Layer_2" data-name="Layer 2" xmlns="http://www.w3.org/2000/svg" viewBox="0 0 296.5 494.98">
  <defs>
    <style>
      .cls-1 {
        fill: #ea1c35;
      }

      .cls-2 {
        fill-rule: evenodd;
      }

      .cls-2, .cls-3 {
        fill: #fff;
      }

      .cls-4 {
        fill: #c7994a;
      }

      .cls-5 {
        fill: #002a4e;
      }
    </style>
  </defs>
  <g id="Layer_1-2" data-name="Layer 1">
    <g>
      <path class="cls-5" d="M18.7,36.45l8.22-4.69,1.69,2.95-5.09,2.91,1.65,2.89,5.09-2.91,1.66,2.91-5.09,2.91,4.09,7.16-3.13,1.79-9.09-15.91Z"/>
      <path class="cls-5" d="M36.62,26.73l3.31-1.62,14.65,13.23-3.39,1.66-3-2.73-6.99,3.42.27,4.07-3.39,1.66-1.46-19.69ZM40.43,30.27l.47,6.78,4.58-2.24-5.05-4.53Z"/>
      <path class="cls-5" d="M51.63,19.81l3.33-1.38,7.02,16.93-3.33,1.38-7.02-16.93Z"/>
      <path class="cls-5" d="M59.73,16.5l9.92-3.56,1.16,3.24-3.27,1.17,5.03,14.01-3.47,1.24-5.02-14.01-3.19,1.14-1.16-3.24Z"/>
      <path class="cls-5" d="M74.95,11.19l3.55-.99,1.85,6.66,6.13-1.7-1.85-6.66,3.53-.98,4.91,17.66-3.53.98-2.15-7.74-6.13,1.7,2.15,7.74-3.55.99-4.91-17.66Z"/>
      <path class="cls-5" d="M115.7,2.42l3.66-.36.68,6.88,6.33-.62-.68-6.88,3.65-.36,1.79,18.24-3.65.36-.79-8-6.33.62.79,8-3.66.36-1.79-18.24Z"/>
      <path class="cls-5" d="M146.06,0c2.7-.04,5.03.87,7,2.72,1.97,1.85,2.97,4.12,3.01,6.82.04,2.67-.89,4.95-2.78,6.83-1.89,1.88-4.2,2.84-6.93,2.88-2.86.04-5.25-.88-7.17-2.75-1.92-1.88-2.9-4.12-2.94-6.74-.02-1.75.39-3.37,1.25-4.85s2.06-2.66,3.59-3.55c1.53-.88,3.19-1.34,4.97-1.36ZM146.07,3.41c-1.77.02-3.24.64-4.43,1.83-1.18,1.2-1.76,2.7-1.74,4.52.03,2.03.81,3.62,2.34,4.78,1.19.91,2.55,1.35,4.07,1.33,1.72-.02,3.18-.64,4.37-1.86,1.19-1.21,1.78-2.69,1.75-4.45-.02-1.74-.66-3.21-1.89-4.4-1.24-1.19-2.73-1.77-4.48-1.75Z"/>
      <path class="cls-5" d="M162.54.6l3.84.22c2.08.12,3.57.39,4.46.81.9.42,1.59,1.06,2.07,1.92.48.86.69,1.86.63,3.01-.07,1.28-.48,2.32-1.22,3.12-.74.81-1.72,1.34-2.93,1.6-.71.15-1.99.17-3.83.07l-.44,7.75-3.62-.21,1.05-18.29ZM165.75,7.95l1.15.07c.91.05,1.54.03,1.9-.08.36-.1.65-.29.87-.57.22-.28.34-.62.36-1.02.04-.71-.21-1.24-.77-1.6-.4-.26-1.16-.43-2.28-.49l-1.02-.06-.21,3.76Z"/>
      <path class="cls-5" d="M179.86,1.82l10.33,1.28-.42,3.39-6.75-.84-.41,3.29,6.75.84-.41,3.33-6.75-.84-.59,4.78,6.75.84-.42,3.4-10.33-1.28,2.25-18.19Z"/>
      <path class="cls-5" d="M216.41,8.57l3.49,1-4.12,14.42,5.09,1.45-.91,3.2-8.58-2.45,5.03-17.62Z"/>
      <path class="cls-5" d="M238.86,15.38c2.52.96,4.36,2.66,5.5,5.1,1.15,2.44,1.24,4.93.29,7.45-.95,2.5-2.65,4.28-5.1,5.33-2.45,1.05-4.95,1.09-7.5.12-2.67-1.02-4.56-2.75-5.66-5.2-1.09-2.45-1.18-4.9-.25-7.34.62-1.64,1.61-2.99,2.95-4.05s2.9-1.72,4.64-1.97c1.75-.25,3.45-.07,5.12.57ZM237.61,18.56c-1.65-.63-3.25-.6-4.79.07s-2.64,1.86-3.28,3.56c-.72,1.89-.58,3.66.42,5.3.77,1.28,1.87,2.19,3.29,2.73,1.61.61,3.19.57,4.75-.11,1.56-.69,2.65-1.85,3.27-3.49.62-1.63.57-3.23-.14-4.79-.71-1.56-1.88-2.66-3.52-3.28Z"/>
      <path class="cls-5" d="M251.96,21.15l3.35,1.65-1.44,13.8,10.11-9.53,3.35,1.65-14.25,13.41-3.14-1.55,2.03-19.42Z"/>
      <path class="cls-5" d="M272.36,31.59l8.98,5.26-1.73,2.94-5.87-3.44-1.68,2.86,5.87,3.44-1.69,2.89-5.87-3.44-2.44,4.16,5.87,3.44-1.73,2.95-8.98-5.26,9.26-15.81Z"/>
    </g>
    <polygon class="cls-4" points="106.91 10.51 104.11 10.97 103.68 8.33 102.18 8.58 102.61 11.22 99.81 11.68 100.06 13.18 102.86 12.72 103.86 18.81 105.36 18.56 104.36 12.47 107.16 12.01 106.91 10.51"/>
    <polygon class="cls-4" points="205.73 12.13 202.93 11.65 203.39 9.01 201.89 8.75 201.43 11.39 198.64 10.91 198.38 12.41 201.17 12.89 200.12 18.97 201.62 19.23 202.67 13.15 205.47 13.64 205.73 12.13"/>
    <path class="cls-5" d="M151.05,35.26c36.51,0,70.21,8.38,100.16,24.9,14.03,7.74,23.92,15.57,29.39,20.38-5.29,43.69-15.41,84.72-30.11,122.07-12.43,31.58-28.16,60.63-46.74,86.34-21.33,29.51-41.64,47.86-52.7,56.74-11.08-8.9-31.39-27.24-52.71-56.74-18.58-25.71-34.31-54.76-46.74-86.34-14.7-37.34-24.82-78.37-30.11-122.06,5.48-4.82,15.37-12.65,29.39-20.39,29.95-16.53,63.65-24.9,100.16-24.9"/>
    <path class="cls-3" d="M227.21,251.48c-83.17-34.63-147.38-1.22-148.02-.88l-2.41-4.5c.66-.35,67.02-34.88,152.39.67l-1.96,4.71Z"/>
    <g>
      <path class="cls-5" d="M10.75,416.53c.09-.19.31-.31.64-.36,1.62-.24,2.76-.55,3.4-.93.65-.38,1.06-.96,1.25-1.72.19-.76.33-2.08.43-3.94.19-2.91.33-5.73.43-8.46.09-2.72.14-5.8.14-9.24s-.05-6.84-.14-10.64c-.1-3.8-.22-6.84-.36-9.14-.1-1-.44-1.65-1.04-1.93-.6-.29-1.78-.43-3.55-.43-1.91,0-3.46.38-4.66,1.15-1.19.76-2.26,2.16-3.19,4.19-.93,2.03-1.88,5.03-2.83,8.99-.48,0-.81-.06-1-.18-.19-.12-.29-.39-.29-.82.09-1.24.17-2.46.21-3.65.14-1.82.28-3.82.4-6.02.12-2.2.2-4.06.25-5.59.05-.33.13-.58.25-.75.12-.17.3-.25.54-.25l2.08.07c1.96.05,4.5.11,7.63.18,3.13.07,6.39.11,9.78.11s6.5-.04,9.6-.11c3.1-.07,5.64-.13,7.59-.18l2.08-.07c.24,0,.43.08.57.25.14.17.24.42.29.75.05,1.58.13,3.49.25,5.73.12,2.25.25,4.28.4,6.09l.21,3.44c0,.43-.1.71-.29.82-.19.12-.52.18-1,.18-.96-3.96-1.9-6.96-2.83-8.99-.93-2.03-1.99-3.43-3.19-4.19-1.19-.76-2.77-1.15-4.73-1.15-1.72,0-2.87.14-3.44.43-.57.29-.88.93-.93,1.93-.19,2.58-.32,5.7-.4,9.35-.07,3.65-.11,7.18-.11,10.57,0,7.12.14,13.23.43,18.34.14,1.77.33,3,.57,3.69.24.69.73,1.17,1.47,1.43.74.26,2.04.47,3.91.61,0,.57-.07.97-.22,1.18s-.43.32-.86.32l-3.44-.14c-2.29-.1-4.28-.14-5.95-.14-1.39,0-3.3.05-5.73.14-1.05.05-1.85.07-2.4.07s-1.35.02-2.4.07c0-.52.05-.88.14-1.07Z"/>
      <path class="cls-5" d="M55.14,417.46c-.74,0-1.68.02-2.83.07-1.57.05-3.2.07-4.87.07,0-.48.05-.81.14-1,.09-.19.33-.31.71-.36,1.53-.24,2.62-.54,3.26-.9.64-.36,1.06-.92,1.25-1.68.19-.76.34-1.98.43-3.65.33-8.31.5-14.98.5-19.99,0-6.26-.17-11.54-.5-15.84-.14-1.81-.34-3.07-.57-3.76s-.72-1.17-1.43-1.43c-.72-.26-2.03-.47-3.94-.61,0-.57.07-.97.21-1.18s.38-.32.72-.32c1.05,0,2.58.05,4.58.14,1,.05,1.83.07,2.47.07s1.47.02,2.47.07c1.39,0,3.1-.05,5.16-.14.86-.09,1.71-.15,2.54-.18.84-.02,1.68-.04,2.54-.04,3.68,0,6.88.48,9.6,1.43,2.72.96,4.84,2.35,6.34,4.19,1.5,1.84,2.26,4.05,2.26,6.63,0,2.25-.67,4.31-2.01,6.2-1.34,1.89-3.21,3.45-5.63,4.69-2.41,1.24-5.22,2.05-8.42,2.44l-.14-.5c2.67,0,4.8.3,6.38.9,1.57.6,2.8,1.47,3.69,2.62.88,1.15,1.73,2.68,2.54,4.59,1.34,3.25,2.54,5.95,3.62,8.1s2.04,3.82,2.9,5.02c.67,1.05,1.4,1.83,2.19,2.33s1.73.78,2.83.82c0,.48-.06.82-.18,1.04s-.42.32-.9.32h-7.95c-1.57,0-2.77-.28-3.58-.82-.81-.55-1.65-1.74-2.51-3.58-.86-1.84-2.29-5.29-4.3-10.35-1.29-3.06-2.29-5.22-3.01-6.49-.72-1.26-1.44-2.11-2.15-2.54-.72-.43-1.79-.74-3.22-.93-.76-.1-1.25-.27-1.47-.54-.22-.26-.32-.78-.32-1.54.33.05.73.1,1.18.14.45.05.87.07,1.25.07,3.2,0,5.66-1.01,7.38-3.05,1.72-2.03,2.58-4.84,2.58-8.42,0-3.3-.87-5.9-2.61-7.81-1.74-1.91-4.22-2.87-7.42-2.87-1.43,0-2.51.14-3.22.43-.72.29-1.22.78-1.5,1.47-.29.69-.43,1.76-.43,3.19v17.41c.05,4.16.09,8.36.14,12.61.09,1.96.17,3.97.21,6.02.1,1.67.3,2.91.61,3.73.31.81.87,1.4,1.68,1.76.81.36,2.15.63,4.01.82.05.48.01.81-.11,1s-.39.29-.82.29c-1.29,0-2.58-.02-3.87-.07-2.01-.05-3.89-.1-5.66-.14-1.15.05-2.09.07-2.83.07Z"/>
      <path class="cls-5" d="M97.56,416.49c.12-.22.37-.35.75-.39,1.43-.19,2.46-.48,3.08-.86.62-.38,1.03-.93,1.22-1.65.19-.72.33-1.91.43-3.58.19-3.49.32-6.72.39-9.71.07-2.98.11-6.17.11-9.57,0-6.21-.17-11.87-.5-16.98-.1-1.62-.26-2.76-.5-3.4-.24-.64-.72-1.1-1.43-1.36-.72-.26-1.96-.47-3.73-.61,0-.62.07-1.03.21-1.22.14-.19.48-.29,1-.29,1.05.05,2.1.1,3.15.14,2.72.1,4.78.14,6.16.14,2.1-.05,4.18-.1,6.24-.14l3.87-.14c0,.53-.05.9-.14,1.11-.1.22-.34.35-.72.39-1.53.24-2.59.5-3.19.79-.6.29-1.02.8-1.26,1.54-.24.74-.41,2.02-.5,3.83-.29,6.78-.43,12.85-.43,18.2,0,6.35.14,12.32.43,17.91.14,1.67.35,2.84.61,3.51.26.67.73,1.12,1.4,1.36.67.24,1.89.43,3.66.57,0,.57-.06.97-.18,1.18-.12.22-.39.32-.82.32l-3.08-.14c-2.29-.1-4.28-.14-5.95-.14-1.91.05-3.82.1-5.73.14l-4.73.14c0-.52.06-.9.18-1.11Z"/>
      <path class="cls-5" d="M168.28,417.93c-.46-.41-1.11-1.09-1.97-2.04l-.07-.21-33.82-40.48,1.22-1.07c-.1,3.3-.14,8.6-.14,15.91,0,3.39.01,6.64.03,9.74.02,3.11.08,6.35.18,9.74.1,1.82.31,3.15.65,4.01.33.86.88,1.47,1.65,1.83.76.36,1.96.66,3.58.9.14,0,.29.02.43.07,0,.53-.05.86-.14,1s-.38.22-.86.22c-1.43,0-2.6-.02-3.51-.07-1.24,0-2.6-.02-4.08-.07-.86.05-1.5.07-1.93.07s-1.08.02-1.94.07c-1.1.05-2.22.07-3.37.07,0-.57.06-.94.18-1.11.12-.17.42-.27.9-.32,1.24-.14,2.17-.41,2.79-.79.62-.38,1.08-1.06,1.36-2.04s.48-2.47.57-4.48c.09-2.87.17-5.98.21-9.35.05-3.37.07-6.34.07-8.92,0-2.15-.01-4.66-.04-7.52-.02-2.87-.08-5.64-.18-8.31,0-1.1-.21-2.03-.64-2.79-.43-.76-1.07-1.46-1.93-2.08-.86-.62-2.01-1.19-3.44-1.72,0-.48.05-.8.14-.97.09-.17.36-.25.79-.25l1.93.07c1.15.05,2.2.1,3.15.14.91-.05,1.77-.07,2.58-.07.38-.05.91-.07,1.57-.07s1.23.13,1.68.39c.46.26,1.01.75,1.68,1.47l30.88,36.18-1.65,2.72c.05-2.58.07-6.23.07-10.96,0-6.97-.07-13.97-.22-20.99-.05-2.01-.24-3.48-.57-4.41-.34-.93-.96-1.62-1.86-2.08-.91-.45-2.39-.87-4.44-1.25,0-.48.06-.8.18-.97.12-.17.39-.25.82-.25.72.05,1.24.07,1.58.07s.86.02,1.58.07c1.96.1,3.51.14,4.66.14.91-.05,1.59-.07,2.04-.07s1.13-.02,2.04-.07c.91-.05,1.79-.07,2.65-.07,0,.53-.05.87-.14,1.04-.1.17-.34.28-.72.32-1.34.24-2.29.57-2.87,1-.57.43-.95,1.12-1.11,2.08-.17.96-.27,2.51-.32,4.66-.05,4.92-.1,9.87-.14,14.83v26.3c0,.48-.04.82-.11,1.04-.07.22-.25.32-.54.32s-.66-.2-1.11-.61Z"/>
      <path class="cls-5" d="M180.89,416.49c.12-.22.37-.35.75-.39,1.44-.19,2.46-.48,3.08-.86.62-.38,1.03-.93,1.22-1.65.19-.72.33-1.91.43-3.58.19-3.49.32-6.72.39-9.71.07-2.98.11-6.17.11-9.57,0-6.21-.17-11.87-.5-16.98-.1-1.62-.26-2.76-.5-3.4-.24-.64-.72-1.1-1.43-1.36-.72-.26-1.96-.47-3.73-.61,0-.62.07-1.03.22-1.22.14-.19.48-.29,1-.29,1.05.05,2.1.1,3.15.14,2.72.1,4.78.14,6.16.14,2.1-.05,4.18-.1,6.23-.14l3.87-.14c0,.53-.05.9-.14,1.11-.1.22-.34.35-.72.39-1.53.24-2.59.5-3.19.79s-1.01.8-1.25,1.54c-.24.74-.41,2.02-.5,3.83-.29,6.78-.43,12.85-.43,18.2,0,6.35.14,12.32.43,17.91.14,1.67.35,2.84.61,3.51.26.67.73,1.12,1.4,1.36.67.24,1.89.43,3.65.57,0,.57-.06.97-.18,1.18s-.4.32-.82.32l-3.08-.14c-2.29-.1-4.28-.14-5.95-.14-1.91.05-3.82.1-5.73.14l-4.73.14c0-.52.06-.9.18-1.11Z"/>
      <path class="cls-5" d="M217.4,416.53c.09-.19.31-.31.64-.36,1.62-.24,2.76-.55,3.4-.93.65-.38,1.06-.96,1.25-1.72.19-.76.33-2.08.43-3.94.19-2.91.33-5.73.43-8.46.09-2.72.14-5.8.14-9.24s-.05-6.84-.14-10.64c-.1-3.8-.22-6.84-.36-9.14-.1-1-.44-1.65-1.04-1.93-.6-.29-1.78-.43-3.55-.43-1.91,0-3.46.38-4.66,1.15-1.19.76-2.26,2.16-3.19,4.19-.93,2.03-1.88,5.03-2.83,8.99-.48,0-.81-.06-1-.18-.19-.12-.29-.39-.29-.82.09-1.24.17-2.46.21-3.65.14-1.82.28-3.82.4-6.02.12-2.2.2-4.06.25-5.59.05-.33.13-.58.25-.75.12-.17.3-.25.54-.25l2.08.07c1.96.05,4.5.11,7.63.18,3.13.07,6.39.11,9.78.11s6.5-.04,9.6-.11c3.1-.07,5.64-.13,7.59-.18l2.08-.07c.24,0,.43.08.57.25.14.17.24.42.29.75.05,1.58.13,3.49.25,5.73.12,2.25.25,4.28.4,6.09l.21,3.44c0,.43-.1.71-.29.82-.19.12-.52.18-1,.18-.96-3.96-1.9-6.96-2.83-8.99-.93-2.03-1.99-3.43-3.19-4.19-1.19-.76-2.77-1.15-4.73-1.15-1.72,0-2.87.14-3.44.43-.57.29-.88.93-.93,1.93-.19,2.58-.32,5.7-.4,9.35-.07,3.65-.11,7.18-.11,10.57,0,7.12.14,13.23.43,18.34.14,1.77.33,3,.57,3.69.24.69.73,1.17,1.47,1.43.74.26,2.04.47,3.91.61,0,.57-.07.97-.22,1.18s-.43.32-.86.32l-3.44-.14c-2.29-.1-4.28-.14-5.95-.14-1.39,0-3.3.05-5.73.14-1.05.05-1.85.07-2.4.07s-1.35.02-2.4.07c0-.52.05-.88.14-1.07Z"/>
      <path class="cls-5" d="M264.9,416.57c.09-.17.36-.27.79-.32,1.81-.24,3.06-.61,3.72-1.11.67-.5,1.1-1.42,1.29-2.76.19-1.34.29-3.85.29-7.52,0-2.91-.05-5.11-.14-6.59-.1-1.48-.3-2.73-.61-3.76-.31-1.03-.8-2.16-1.47-3.4-1.05-1.81-1.84-3.16-2.36-4.05-.53-.88-1.31-2.21-2.37-3.98l-5.16-8.96c-.91-1.43-1.66-2.53-2.26-3.3-.6-.76-1.19-1.33-1.79-1.68-.6-.36-1.33-.66-2.19-.9,0-.52.06-.87.18-1.04.12-.17.42-.25.9-.25,1.39,0,2.53.02,3.44.07l4.8.07c2.25-.05,4.49-.07,6.74-.07l3.3-.07c0,.48-.06.8-.18.97-.12.17-.42.27-.9.32-1.39.19-2.36.51-2.94.97-.57.45-.86,1.04-.86,1.76,0,.62.12,1.27.36,1.93.24.67.64,1.5,1.22,2.51l.07.14,9.53,17.77-1.72.29c1.39-2.96,3.23-6.59,5.52-10.89l2.15-4.16c1.67-3.25,2.51-5.56,2.51-6.95,0-1.1-.38-1.87-1.15-2.33-.76-.45-2.01-.85-3.73-1.18,0-.43.05-.73.14-.9.09-.17.33-.25.72-.25,1,0,2.01.02,3.01.07,1,.05,1.76.07,2.26.07s1.23.02,2.18.07c1.43,0,3.03-.05,4.8-.14l1.5-.07c0,.53-.05.9-.14,1.11-.1.22-.31.35-.64.39-.77.14-1.42.42-1.97.82-.55.41-1.13,1.05-1.75,1.94-.62.88-1.43,2.23-2.44,4.05l-.65,1.08c-1.96,3.49-3.72,6.57-5.3,9.24-1.67,3.2-2.7,5.21-3.08,6.02-.48,1-.83,2.13-1.04,3.37-.22,1.24-.32,3.27-.32,6.09v9.17c0,1.77.11,3.01.32,3.73.21.72.74,1.24,1.58,1.58.84.33,2.28.55,4.33.65,0,.57-.06.96-.18,1.15-.12.19-.37.29-.75.29l-3.37-.07c-2.15-.05-4.2-.1-6.16-.14-2.29.05-4.58.1-6.88.14l-3.3.07c0-.52.05-.87.14-1.04Z"/>
    </g>
    <g>
      <path class="cls-5" d="M24.56,446.59l-1.95,1.86c-1.33-1.4-2.82-2.1-4.48-2.1-1.4,0-2.58.48-3.54,1.44-.96.96-1.44,2.14-1.44,3.54,0,.98.21,1.85.64,2.6s1.03,1.35,1.8,1.79c.78.43,1.64.65,2.59.65.81,0,1.55-.15,2.22-.45.67-.3,1.41-.85,2.21-1.65l1.89,1.97c-1.08,1.06-2.11,1.79-3.07,2.2s-2.06.61-3.3.61c-2.28,0-4.14-.72-5.59-2.17-1.45-1.45-2.18-3.3-2.18-5.56,0-1.46.33-2.76.99-3.9s1.61-2.05,2.84-2.74,2.56-1.04,3.98-1.04c1.21,0,2.38.26,3.49.77,1.12.51,2.08,1.24,2.89,2.18Z"/>
      <path class="cls-5" d="M36.76,444.02h2.83l5.64,14.66h-2.9l-1.15-3.02h-5.98l-1.19,3.02h-2.9l5.65-14.66ZM38.19,447.9l-1.97,5.03h3.92l-1.95-5.03Z"/>
      <path class="cls-5" d="M51.23,444.02h8.1v2.75h-2.67v11.91h-2.83v-11.91h-2.6v-2.75Z"/>
      <path class="cls-5" d="M66.52,444.02h2.83v5.53h4.89v-5.53h2.82v14.66h-2.82v-6.43h-4.89v6.43h-2.83v-14.66Z"/>
      <path class="cls-5" d="M92.62,443.65c2.07,0,3.86.75,5.35,2.25s2.24,3.33,2.24,5.49-.74,3.95-2.21,5.43-3.26,2.22-5.36,2.22-4.03-.76-5.48-2.28-2.18-3.33-2.18-5.42c0-1.4.34-2.69,1.02-3.87.68-1.18,1.61-2.11,2.8-2.8,1.19-.69,2.46-1.03,3.83-1.03ZM92.59,446.38c-1.36,0-2.5.47-3.42,1.42-.93.94-1.39,2.14-1.39,3.6,0,1.62.58,2.9,1.75,3.85.9.74,1.94,1.11,3.11,1.11,1.32,0,2.45-.48,3.38-1.44s1.4-2.14,1.4-3.54-.47-2.58-1.41-3.54-2.08-1.45-3.42-1.45Z"/>
      <path class="cls-5" d="M108.12,444.02h2.79v12h4.07v2.66h-6.86v-14.66Z"/>
      <path class="cls-5" d="M122.19,444.02h2.77v14.66h-2.77v-14.66Z"/>
      <path class="cls-5" d="M146.86,446.59l-1.95,1.86c-1.33-1.4-2.82-2.1-4.48-2.1-1.4,0-2.58.48-3.54,1.44-.96.96-1.44,2.14-1.44,3.54,0,.98.21,1.85.64,2.6s1.03,1.35,1.8,1.79c.78.43,1.64.65,2.59.65.81,0,1.55-.15,2.22-.45.67-.3,1.41-.85,2.21-1.65l1.89,1.97c-1.08,1.06-2.11,1.79-3.07,2.2s-2.06.61-3.3.61c-2.28,0-4.14-.72-5.59-2.17s-2.18-3.3-2.18-5.56c0-1.46.33-2.76.99-3.9s1.61-2.05,2.84-2.74,2.56-1.04,3.98-1.04c1.21,0,2.38.26,3.49.77,1.12.51,2.08,1.24,2.89,2.18Z"/>
      <path class="cls-5" d="M179.06,446.59l-1.95,1.86c-1.33-1.4-2.82-2.1-4.48-2.1-1.4,0-2.58.48-3.54,1.44-.96.96-1.44,2.14-1.44,3.54,0,.98.21,1.85.64,2.6s1.02,1.35,1.8,1.79c.78.43,1.64.65,2.59.65.81,0,1.55-.15,2.22-.45.67-.3,1.41-.85,2.21-1.65l1.89,1.97c-1.08,1.06-2.11,1.79-3.07,2.2s-2.06.61-3.3.61c-2.28,0-4.14-.72-5.6-2.17s-2.18-3.3-2.18-5.56c0-1.46.33-2.76.99-3.9s1.61-2.05,2.84-2.74,2.56-1.04,3.98-1.04c1.21,0,2.37.26,3.49.77,1.12.51,2.08,1.24,2.9,2.18Z"/>
      <path class="cls-5" d="M193.71,443.65c2.07,0,3.86.75,5.35,2.25,1.49,1.5,2.24,3.33,2.24,5.49s-.74,3.95-2.21,5.43c-1.47,1.48-3.26,2.22-5.36,2.22-2.2,0-4.03-.76-5.48-2.28-1.46-1.52-2.19-3.33-2.19-5.42,0-1.4.34-2.69,1.02-3.87.68-1.18,1.61-2.11,2.8-2.8s2.46-1.03,3.84-1.03ZM193.68,446.38c-1.36,0-2.5.47-3.42,1.42-.93.94-1.39,2.14-1.39,3.6,0,1.62.58,2.9,1.75,3.85.9.74,1.94,1.11,3.11,1.11,1.32,0,2.45-.48,3.38-1.44.93-.96,1.4-2.14,1.4-3.54s-.47-2.58-1.41-3.54c-.94-.97-2.08-1.45-3.42-1.45Z"/>
      <path class="cls-5" d="M209.21,444.02h2.79v12h4.07v2.66h-6.86v-14.66Z"/>
      <path class="cls-5" d="M223.48,444.02h2.79v12h4.07v2.66h-6.86v-14.66Z"/>
      <path class="cls-5" d="M237.75,444.02h8v2.73h-5.23v2.65h5.23v2.68h-5.23v3.86h5.23v2.74h-8v-14.66Z"/>
      <path class="cls-5" d="M267.18,446.41l-1.96,1.94c-1.24-1.32-2.69-1.97-4.35-1.97-1.44,0-2.65.48-3.63,1.44-.97.96-1.46,2.12-1.46,3.49s.51,2.61,1.52,3.6,2.26,1.47,3.74,1.47c.97,0,1.78-.2,2.44-.61s1.19-1.04,1.6-1.9h-4.25v-2.62h7.37l.02.62c0,1.28-.33,2.5-1,3.65s-1.52,2.03-2.58,2.63-2.3.91-3.72.91c-1.52,0-2.88-.33-4.07-.99s-2.14-1.6-2.83-2.83-1.04-2.54-1.04-3.96c0-1.94.64-3.63,1.92-5.06,1.52-1.71,3.5-2.56,5.94-2.56,1.28,0,2.47.24,3.58.71.94.4,1.85,1.08,2.75,2.05Z"/>
      <path class="cls-5" d="M276.08,444.02h8v2.73h-5.23v2.65h5.23v2.68h-5.23v3.86h5.23v2.74h-8v-14.66Z"/>
    </g>
    <rect class="cls-4" x="5.51" y="433.3" width="283.4" height="1.28"/>
    <rect class="cls-4" x="5.51" y="468.16" width="283.4" height="1.28"/>
    <g>
      <polygon class="cls-3" points="153.68 35.8 148.21 35.8 148.21 98.23 86.96 98.23 86.96 104.26 148.21 104.26 148.21 232.35 153.68 232.35 153.68 104.26 215.14 104.26 215.14 98.23 153.68 98.23 153.68 35.8"/>
      <polygon class="cls-3" points="164.63 86.82 164.63 35.8 158.95 35.8 158.95 92.41 215.14 92.41 215.14 86.82 164.63 86.82"/>
      <polygon class="cls-3" points="142.95 35.8 137.48 35.8 137.48 86.82 86.96 86.82 86.96 92.41 142.95 92.41 142.95 35.8"/>
      <polygon class="cls-3" points="86.96 115.67 137.48 115.67 137.48 232.35 142.95 232.35 142.95 110.07 86.96 110.07 86.96 115.67"/>
      <polygon class="cls-3" points="158.95 232.35 164.63 232.35 164.63 115.67 215.14 115.67 215.14 110.07 158.95 110.07 158.95 232.35"/>
    </g>
    <path class="cls-1" d="M151.05,350.88l-2.53-2.03c-10.57-8.49-31.56-27.24-53.45-57.53-18.78-25.99-34.67-55.34-47.22-87.23-14.81-37.63-25.03-79.03-30.36-123.06l-.26-2.11,1.6-1.4c5.95-5.23,16-13.1,30.11-20.89,30.55-16.86,64.91-25.41,102.11-25.41s71.56,8.55,102.11,25.41c14.11,7.79,24.16,15.66,30.11,20.89l1.6,1.4-.26,2.11c-5.33,44.03-15.55,85.43-30.36,123.06-12.55,31.89-28.44,61.24-47.22,87.23-21.89,30.29-42.89,49.04-53.45,57.53l-2.53,2.03ZM25.77,82.19c5.32,42.55,15.27,82.56,29.6,118.94,12.31,31.26,27.87,60.01,46.26,85.46,19.7,27.26,38.59,44.88,49.43,53.9,10.84-9.02,29.73-26.63,49.43-53.9,18.38-25.44,33.95-54.19,46.25-85.46,14.32-36.39,24.28-76.39,29.6-118.94-5.78-4.91-14.8-11.72-27.08-18.49-29.34-16.19-62.39-24.4-98.21-24.4s-68.86,8.21-98.21,24.4c-12.27,6.77-21.3,13.58-27.08,18.5Z"/>
    <path class="cls-4" d="M163.82,293.56l-12.42-7.38-12.91,6.8,3.46-14.01-12.36-10.34h16.04s5.45-12.97,5.45-12.97l5.56,13.07h15.9l-12.51,10.24,3.8,14.59ZM151.48,282.88l7.95,4.72-2.54-9.75,7.57-6.19h-9.59l-3.78-8.88-3.69,8.79h-9.87s7.53,6.29,7.53,6.29l-2.39,9.66,8.81-4.64Z"/>
    <path class="cls-3" d="M151.05,342.7l-1.09-.91c-12.06-10.03-30.47-27.57-49.73-54.21-18.47-25.56-34.1-54.43-46.46-85.83-14.37-36.51-24.36-76.67-29.7-119.35l-.11-.91.7-.59c5.5-4.67,14.7-11.71,27.36-18.69,29.6-16.33,62.92-24.61,99.03-24.61s69.43,8.28,99.03,24.61c12.65,6.98,21.86,14.02,27.36,18.69l.7.59-.11.91c-5.34,42.69-15.33,82.85-29.7,119.36-12.36,31.4-27.99,60.27-46.46,85.83-19.26,26.65-37.67,44.19-49.72,54.21l-1.09.91ZM27.57,82.9c5.33,42.06,15.21,81.63,29.37,117.62,12.25,31.13,27.75,59.76,46.05,85.08,19.33,26.74,38,44.19,48.06,52.68,10.05-8.48,28.72-25.93,48.05-52.68,18.3-25.32,33.8-53.95,46.05-85.08,14.17-35.98,24.05-75.55,29.38-117.62-5.44-4.56-14.21-11.15-26.09-17.71-29.09-16.05-61.86-24.19-97.39-24.19s-68.3,8.14-97.39,24.19c-11.88,6.56-20.65,13.15-26.09,17.71Z"/>
    <g>
      <path class="cls-5" d="M83.06,482.45h2.36l4.7,12.22h-2.42l-.96-2.52h-4.98l-.99,2.52h-2.42l4.71-12.22ZM84.25,485.69l-1.64,4.19h3.27l-1.63-4.19Z"/>
      <path class="cls-5" d="M95.38,482.45h2.76c1.78,0,3.09.22,3.96.66.86.44,1.57,1.16,2.13,2.15.56.99.84,2.15.84,3.47,0,.94-.16,1.81-.47,2.6-.31.79-.74,1.44-1.3,1.96-.55.52-1.15.88-1.79,1.08-.64.2-1.75.3-3.34.3h-2.8v-12.22ZM97.69,484.69v7.71h1.08c1.06,0,1.83-.12,2.31-.37.48-.24.87-.65,1.17-1.23s.46-1.29.46-2.13c0-1.3-.36-2.3-1.09-3.02-.65-.64-1.7-.97-3.15-.97h-.79Z"/>
      <path class="cls-5" d="M113.97,482.45h2.36l4.7,12.22h-2.42l-.96-2.52h-4.98l-.99,2.52h-2.42l4.71-12.22ZM115.16,485.69l-1.64,4.19h3.27l-1.63-4.19Z"/>
      <path class="cls-5" d="M127.91,482.45h2.27l2.83,8.52,2.86-8.52h2.26l2.05,12.22h-2.25l-1.31-7.72-2.6,7.72h-2.05l-2.57-7.72-1.34,7.72h-2.27l2.11-12.22Z"/>
      <path class="cls-5" d="M152.21,484.11l-1.72,1.52c-.6-.84-1.22-1.26-1.85-1.26-.31,0-.55.08-.75.25-.19.16-.29.35-.29.55s.07.4.21.58c.19.24.76.77,1.71,1.57.89.74,1.43,1.21,1.61,1.4.47.48.81.93,1,1.37.2.44.3.91.3,1.43,0,1-.35,1.83-1.04,2.48s-1.6.98-2.71.98c-.87,0-1.63-.21-2.27-.64-.65-.43-1.2-1.1-1.66-2.01l1.95-1.18c.59,1.08,1.26,1.62,2.03,1.62.4,0,.73-.12,1.01-.35.27-.23.41-.5.41-.81,0-.28-.1-.55-.31-.83-.21-.28-.66-.7-1.36-1.27-1.33-1.08-2.19-1.92-2.58-2.51-.39-.59-.58-1.18-.58-1.76,0-.85.32-1.57.97-2.18.65-.61,1.44-.91,2.39-.91.61,0,1.19.14,1.74.42s1.15.8,1.79,1.54Z"/>
      <path class="cls-5" d="M157.16,482.45h6.75v2.29h-2.23v9.92h-2.36v-9.92h-2.17v-2.29Z"/>
      <path class="cls-5" d="M174.6,482.14c1.73,0,3.22.63,4.46,1.88s1.87,2.78,1.87,4.58-.61,3.29-1.84,4.53-2.72,1.85-4.47,1.85-3.36-.63-4.57-1.9c-1.21-1.27-1.82-2.77-1.82-4.52,0-1.17.28-2.24.85-3.22.57-.98,1.34-1.76,2.33-2.33.99-.57,2.05-.86,3.19-.86ZM174.58,484.42c-1.13,0-2.08.39-2.85,1.18-.77.79-1.16,1.79-1.16,3,0,1.35.49,2.42,1.46,3.21.75.61,1.62.92,2.59.92,1.1,0,2.04-.4,2.82-1.2s1.16-1.78,1.16-2.95-.39-2.15-1.17-2.95c-.78-.81-1.73-1.21-2.85-1.21Z"/>
      <path class="cls-5" d="M185.52,482.45h2.29l1.76,7.8,2.18-7.8h1.93l2.21,7.8,1.75-7.8h2.29l-2.75,12.22h-2.23l-2.25-7.9-2.21,7.9h-2.21l-2.77-12.22Z"/>
      <path class="cls-5" d="M205.3,482.45h2.23l5.23,8.04v-8.04h2.33v12.22h-2.24l-5.22-8.01v8.01h-2.33v-12.22Z"/>
    </g>
    <path class="cls-2" d="M113.81,223.56c.53-1.01,1.28-2.24,2.18-2.68.84-.41,2.08-.54,3.16-.33.28.05.39.22.33.49-.19.86.19,1.78,1,2.24.51.29,1.08.34,1.6.19.41-.12.65-.22.97-.07.18.1.52-.17.77-.61.25-.44.31-.87.13-.97-.29-.2-.33-.45-.44-.87-.14-.52-.47-.99-.98-1.28-.85-.49-1.9-.3-2.55.39-.24.25-.38.22-.72.14-1.28-.32-2.81-.27-3.54.17.61-1.01,1.02-1.68,2.02-2.4.68-.49,1.47-.88,2.28-1.11.31-.09.39-.04.52.23.4.82,1.32,1.32,2.26,1.14.58-.11,1.06-.44,1.36-.89.24-.36.36-.59.7-.68.2-.04.29-.47.2-.97-.09-.5-.33-.87-.53-.84-.36.03-.54-.13-.9-.39-.44-.32-1.01-.46-1.59-.35-.97.18-1.66,1-1.71,1.95-.01.27-.07.41-.34.47-1.12.26-2.2.78-3.01,1.47.41-.94.61-1.71.74-2.71.06-.42.11-.44.52-.52.99-.2,1.75-1.06,1.78-2.11.02-.62-.22-1.2-.62-1.61-.32-.33-.53-.5-.55-.88,0-.22-.43-.41-.96-.42-.54-.02-.98.15-.99.37-.04.38-.26.54-.6.85-.43.39-.7.95-.72,1.57-.03.95.54,1.79,1.38,2.13.36.15.46.18.4.6-.12.85-.31,1.52-.6,2.2-.36.85-.84,1.66-1.36,2.42-.06.09-.12.18-.19.27-.52.74-1.07,1.44-1.59,2.18-.07.11-.15.21-.22.32.09-.68,0-1.38-.15-2.11-.14-.73-.28-1.29-.25-2.18,0-.33.04-.69.1-1.07.04-.28.08-.31.36-.34.89-.09,1.63-.78,1.76-1.71.08-.56-.08-1.09-.4-1.5-.25-.33-.42-.5-.4-.84.03-.19-.34-.41-.82-.47-.48-.07-.89.04-.92.23-.08.33-.29.45-.62.7-.42.31-.72.78-.79,1.33-.13.93.4,1.79,1.23,2.13.27.11.32.15.27.44-.12.69-.15,1.32-.14,1.83-.37-.61-.86-1.14-1.46-1.56-.27-.19-.25-.21-.18-.52.18-.83-.23-1.7-1.03-2.08-.47-.22-.99-.22-1.44-.05-.36.14-.56.24-.86.13-.17-.08-.45.19-.64.6-.19.41-.21.8-.04.88.27.16.33.38.45.74.16.45.5.85.97,1.06.74.34,1.6.15,2.13-.42.15-.16.25-.15.43-.02,1.05.77,1.69,1.9,1.88,3.37.18,1.39-.12,2.1-.65,3.31-.85,1.93-1.99,5.11-2.23,7.45-2.14-4.36-2.1-9.44-3.86-14.09-4.97-13.13-16.4-23.47-29.49-28.26,9.07,5.38,17.84,25.18,27.93,30.59,1.46.78,1.82,1.35,2.05,2.64.29,1.62.49,3.25.86,4.87-1.01-1.16-2.81-2.52-5.07-3.73-7.07-11.22-23.64-14.01-33.76-14.37,7.72,5.98,20.66,15.9,33.45,14.87.84.41,2.12,1.18,3.29,2.18,1.95,1.65,2.34,2.57,3.15,4.97.59,1.76,1.28,3.4,2.14,4.74l1.86-.81c-2.43-3.28-.32-8.9,1.31-12.02h0ZM98.98,204.04c-1.06-6.65-.52-13.04-.06-18.19,4.8,7.08,8.41,20.29,6.31,27.73-1.66-3.42-3.81-6.62-6.25-9.55h0ZM123.17,222.43c.2-.34.47-.56.61-.48.14.08.09.42-.1.77-.2.34-.47.56-.61.48-.14-.08-.09-.42.1-.77h0ZM124.34,215.83c-.07-.39,0-.74.16-.77.16-.03.35.27.42.66.07.39,0,.74-.16.77-.16.03-.35-.27-.42-.66h0ZM107.64,215.89c.15-.32.16-.63.03-.69-.13-.06-.36.15-.5.47-.15.32-.16.63-.03.69.13.06.36-.15.5-.47h0ZM113.52,213.14c-.38-.05-.67-.22-.65-.37.02-.15.34-.23.72-.18.38.05.67.22.65.37-.02.15-.34.23-.72.18h0ZM117.88,210.55c-.42-.01-.77-.16-.76-.33,0-.17.35-.3.78-.29.42.01.77.16.76.33,0,.17-.35.3-.78.29h0Z"/>
    <path class="cls-2" d="M188.31,223.56c1.63,3.12,3.74,8.74,1.31,12.02l1.86.81c.85-1.34,1.55-2.98,2.14-4.74.81-2.4,1.2-3.31,3.15-4.97,1.17-1,2.44-1.77,3.29-2.18,12.79,1.03,25.73-8.9,33.45-14.87-10.12.35-26.69,3.15-33.76,14.37-2.26,1.2-4.06,2.56-5.07,3.73.37-1.63.57-3.26.86-4.87.23-1.29.59-1.85,2.05-2.64,10.08-5.41,18.85-25.2,27.93-30.59-13.09,4.78-24.53,15.13-29.49,28.26-1.76,4.64-1.71,9.73-3.86,14.09-.23-2.33-1.38-5.51-2.23-7.45-.53-1.21-.83-1.92-.65-3.31.19-1.47.83-2.6,1.88-3.37.18-.13.28-.14.43.02.53.57,1.39.76,2.13.42.47-.22.81-.61.97-1.06.13-.36.18-.58.45-.74.17-.08.15-.47-.04-.88-.19-.41-.47-.68-.64-.6-.3.11-.5,0-.86-.13-.45-.17-.97-.17-1.44.05-.8.37-1.22,1.25-1.03,2.08.07.31.09.33-.18.52-.61.42-1.09.96-1.46,1.56,0-.51-.02-1.14-.14-1.83-.05-.3,0-.33.27-.44.83-.34,1.36-1.2,1.23-2.13-.08-.56-.38-1.03-.79-1.33-.33-.24-.54-.37-.62-.7-.03-.19-.44-.3-.92-.23-.48.07-.85.28-.82.47.02.34-.15.51-.4.84-.32.41-.48.94-.4,1.5.13.93.87,1.61,1.76,1.71.28.03.32.06.36.34.06.38.09.74.1,1.07.03.89-.11,1.45-.25,2.18-.14.73-.24,1.43-.15,2.11-.07-.11-.15-.22-.22-.32-.52-.74-1.07-1.45-1.59-2.18-.06-.09-.13-.18-.19-.27-.52-.76-1-1.57-1.36-2.42-.29-.68-.48-1.35-.6-2.2-.06-.42.04-.46.4-.6.84-.34,1.41-1.17,1.38-2.13-.02-.62-.29-1.18-.72-1.57-.34-.31-.56-.47-.6-.85,0-.22-.45-.38-.99-.37-.54.02-.97.21-.96.42-.02.38-.23.55-.55.88-.4.42-.64.99-.62,1.61.03,1.05.79,1.91,1.78,2.11.41.08.46.1.52.52.13.99.33,1.77.74,2.71-.81-.69-1.89-1.21-3.01-1.47-.27-.06-.33-.2-.34-.47-.05-.95-.74-1.77-1.71-1.95-.58-.11-1.14.04-1.59.35-.35.25-.54.42-.9.39-.2-.04-.44.34-.53.84-.09.5,0,.93.2.97.34.1.46.32.7.68.3.45.78.79,1.36.89.95.17,1.86-.32,2.26-1.14.13-.27.21-.32.52-.23.81.23,1.6.62,2.28,1.11,1.01.72,1.42,1.39,2.02,2.4-.73-.44-2.26-.49-3.54-.17-.34.09-.48.12-.72-.14-.64-.69-1.69-.87-2.55-.39-.51.29-.85.76-.98,1.28-.11.42-.14.66-.44.87-.18.1-.12.54.13.97.25.44.59.71.77.61.32-.15.55-.05.97.07.52.15,1.1.1,1.6-.19.81-.46,1.19-1.38,1-2.24-.06-.28.05-.44.33-.49,1.08-.21,2.33-.08,3.16.33.9.44,1.65,1.67,2.18,2.68h0ZM203.14,204.04c-2.44,2.92-4.59,6.12-6.25,9.55-2.1-7.45,1.51-20.65,6.31-27.73.46,5.15,1,11.54-.06,18.19h0ZM178.95,222.43c.2.34.24.69.1.77-.14.08-.41-.14-.61-.48-.2-.34-.24-.69-.1-.77.14-.08.41.14.61.48h0ZM177.79,215.83c-.07.39-.26.69-.42.66-.16-.03-.23-.37-.16-.77.07-.39.26-.69.42-.66.16.03.23.37.16.77h0ZM194.49,215.89c.15.32.37.53.5.47.13-.06.12-.37-.03-.69-.15-.32-.37-.53-.5-.47-.13.06-.12.37.03.69h0ZM188.61,213.14c-.38.05-.7-.03-.72-.18-.02-.15.27-.32.65-.37.38-.05.7.03.72.18.02.15-.27.32-.65.37h0ZM184.25,210.55c-.42.01-.77-.12-.78-.29,0-.17.34-.32.76-.33.42-.01.77.12.78.29,0,.17-.34.32-.76.33h0Z"/>
  </g>
</svg>